PathFileType	4	(x/y/z)	S10_M20_T60
DataRate	CameraRate	NumFrames	NumMarkers	Units	OrigDataRate	OrigDataStartFrame	OrigNumFrames
240	240	9	51	mm	240	130	517
Frame#	Time	Sternum			R.Acromium			L.Acromium			Top.Head			R.ASIS			L.ASIS			R.PSIS			L.PSIS			R.Great.Tro			L.Great.Tro			R.Iliac.Crest			L.Iliac.Crest			V.Sacral			R.Thigh.Upper.Post			R.Thigh.Lower.Ant			R.Thigh.Lower.Post			R.Thigh.Upper.Ant			R.Knee.Lat			R.Knee.Med			R.Shank.Upper.Post			R.Shank.Lower.Ant			R.Shank.Lower.Post			R.Shank.Upper.Ant			R.Ankle.Lat			R.Ankle.Med			R.Heel.Upper			R.Heel.Med			R.Heel.Lat			R.Toe.Lat			R.Toe.Med			R.Toe.Tip			L.Thigh.Upper.Post			L.Thigh.Lower.Ant			L.Thigh.Lower.Post			L.Thigh.Upper.Ant			L.Knee.Lat			L.Knee.Med			L.Shank.Upper.Post			L.Shank.Lower.Ant			L.Shank.Lower.Post			L.Shank.Upper.Ant			L.Ankle.Lat			L.Ankle.Med			L.Heel.Upper			L.Heel.Med			L.Heel.Lat			L.Toe.Lat			L.Toe.Med			L.Toe.Tip			Cervical.Spine			Back			
		X1	Y1	Z1	X2	Y2	Z2	X3	Y3	Z3	X4	Y4	Z4	X5	Y5	Z5	X6	Y6	Z6	X7	Y7	Z7	X8	Y8	Z8	X9	Y9	Z9	X10	Y10	Z10	X11	Y11	Z11	X12	Y12	Z12	X13	Y13	Z13	X14	Y14	Z14	X15	Y15	Z15	X16	Y16	Z16	X17	Y17	Z17	X18	Y18	Z18	X19	Y19	Z19	X20	Y20	Z20	X21	Y21	Z21	X22	Y22	Z22	X23	Y23	Z23	X24	Y24	Z24	X25	Y25	Z25	X26	Y26	Z26	X27	Y27	Z27	X28	Y28	Z28	X29	Y29	Z29	X30	Y30	Z30	X31	Y31	Z31	X32	Y32	Z32	X33	Y33	Z33	X34	Y34	Z34	X35	Y35	Z35	X36	Y36	Z36	X37	Y37	Z37	X38	Y38	Z38	X39	Y39	Z39	X40	Y40	Z40	X41	Y41	Z41	X42	Y42	Z42	X43	Y43	Z43	X44	Y44	Z44	X45	Y45	Z45	X46	Y46	Z46	X47	Y47	Z47	X48	Y48	Z48	X49	Y49	Z49	X50	Y50	Z50	X51	Y51	Z51	

130	0.5375	-24.65	1263.6	314.51	-170.03	1415.2	458.44	-121.28	1447.2	157.29	-178.82	1733.6	332.25	-70.144	995.1	401.61	-86.086	1009.2	173.7	-276.28	1013.1	330.61	-279.86	1024.2	249.7	-128.41	916.58	478.62	-162.56	950.08	119.97	-165.18	1072.8	453.53	-150.87	1085.8	153.04	-299.05	985.11	294.02	-33.606	727.83	482.75	47.924	682.26	442.42	0.83975	645.59	476.92	13.662	766.71	442.83	54.044	531.24	440.43	49.479	527.25	311.65	61.559	300.56	451.16	145.84	264.32	445	89.405	230.6	447.88	122.84	338.03	446.09	150.68	130.87	438	161.7	144.28	359.99	117.52	62.204	386.08	139.13	41.569	360.84	128.97	41.714	421.38	286.29	97.964	481.01	316.77	116.07	375.85	358.66	155.37	420.7	-268.82	696.98	133.5	-220.51	599.14	155.78	-294.18	607.38	156.77	-191.91	682.57	132.44	-285.98	511.88	166.76	-270.18	508.75	294.17	-395.5	313.85	182.19	-347.52	215.5	202.47	-407.75	238.33	198.11	-335.05	290.12	186.83	-402.67	112.4	216.45	-385.86	125.72	302.64	-476.9	87.813	267.92	-465.31	52.622	298.49	-473.57	59.182	235.04	-300.69	40.167	185.94	-267.14	40.707	293.28	-213.19	47.893	241.62	-223.08	1482.1	306.68	-307.51	1274	282.07
131	0.54167	-19.435	1262.3	314.97	-164.93	1414.1	458.8	-115.75	1446	157.74	-173.53	1732.4	332.86	-64.803	993.89	401.6	-81.198	1008.1	173.73	-271.05	1012	330.9	-274.78	1023.1	250	-123.13	915.24	478.7	-157.96	949.19	119.98	-159.84	1071.6	453.74	-145.94	1084.8	153.26	-293.94	984.06	294.34	-29.23	725.91	482.74	52.257	680.2	442.57	4.8817	643.56	476.73	18.278	764.8	443.2	58.771	529.88	440.02	53.89	525.5	311.17	71.205	299.53	451.07	156.17	265.06	444.49	100.5	230.11	447.64	131.61	338.27	445.62	163.87	131.62	437.63	174.45	145.29	359.6	132.07	62.213	385.76	154.17	42.035	360.48	144.09	41.961	421.06	300.31	101.67	480.53	330.2	120.43	375.28	371.3	160.64	420.1	-265.63	696.9	133.55	-217.85	598.78	155.59	-291.5	607.45	156.8	-188.83	681.98	132.29	-283.86	511.85	166.67	-267.76	508.54	294.08	-394.31	314.29	182.24	-346.78	215.71	202.42	-406.89	238.82	198.18	-333.98	290.26	186.77	-402.36	112.77	216.52	-385.38	126.06	302.69	-476.62	88.429	267.97	-465.12	53.208	298.55	-473.41	59.754	235.1	-300.65	40.139	185.9	-267.08	40.699	293.25	-213.08	47.725	241.55	-217.65	1481	306.96	-302.3	1272.9	282.28
132	0.54583	-14.201	1261	315.41	-159.79	1412.9	459.17	-110.23	1444.8	158.19	-168.22	1731.1	333.47	-59.438	992.67	401.58	-76.296	1007	173.75	-265.8	1010.9	331.2	-269.67	1022.1	250.3	-117.79	913.9	478.78	-153.35	948.28	120	-154.46	1070.4	453.95	-141	1083.7	153.46	-288.8	983	294.68	-24.773	724.01	482.75	56.64	678.13	442.71	8.9901	641.56	476.59	22.957	762.88	443.55	63.515	528.53	439.66	58.246	523.73	310.74	80.703	298.56	450.97	166.29	265.82	443.95	111.38	229.69	447.38	140.23	338.52	445.14	176.73	132.44	437.2	186.9	146.37	359.16	146.27	62.352	385.36	168.82	42.63	360.04	158.83	42.328	420.65	313.94	105.35	479.98	343.23	124.76	374.65	383.55	165.83	419.46	-262.38	696.79	133.62	-215.1	598.42	155.42	-288.74	607.5	156.85	-185.68	681.38	132.16	-281.64	511.8	166.59	-265.24	508.32	294	-393.05	314.73	182.29	-345.99	215.92	202.37	-405.98	239.33	198.25	-332.84	290.4	186.72	-402.03	113.16	216.59	-384.89	126.42	302.73	-476.31	89.075	268.01	-464.93	53.827	298.6	-473.23	60.356	235.15	-300.6	40.112	185.87	-267.02	40.693	293.21	-212.98	47.556	241.47	-212.2	1479.9	307.26	-297.06	1271.9	282.52
133	0.55	-8.9472	1259.6	315.85	-154.61	1411.7	459.56	-104.7	1443.5	158.64	-162.9	1729.9	334.09	-54.049	991.43	401.55	-71.38	1005.9	173.75	-260.54	1009.8	331.51	-264.52	1021	250.61	-112.41	912.57	478.85	-148.71	947.36	120.03	-149.05	1069.1	454.16	-136.06	1082.7	153.67	-283.64	981.94	295.03	-20.224	722.15	482.78	61.085	676.08	442.85	13.179	639.6	476.48	27.706	760.98	443.87	68.287	527.19	439.33	62.555	521.96	310.35	90.041	297.65	450.85	176.2	266.59	443.39	122.05	229.34	447.09	148.71	338.77	444.65	189.26	133.3	436.71	199.01	147.49	358.67	160.09	62.601	384.89	183.08	43.332	359.53	173.17	42.796	420.17	327.17	108.98	479.35	355.86	129.03	373.94	395.42	170.9	418.76	-259.05	696.67	133.7	-212.26	598.05	155.26	-285.89	607.54	156.92	-182.46	680.78	132.03	-279.32	511.75	166.54	-262.6	508.08	293.93	-391.71	315.19	182.35	-345.15	216.14	202.33	-405.02	239.86	198.33	-331.64	290.54	186.69	-401.67	113.57	216.66	-384.37	126.8	302.77	-475.99	89.749	268.05	-464.73	54.479	298.65	-473.04	60.99	235.19	-300.56	40.085	185.84	-266.96	40.689	293.17	-212.87	47.385	241.4	-206.73	1478.8	307.58	-291.8	1270.8	282.78
134	0.55417	-3.6715	1258.2	316.28	-149.4	1410.5	459.95	-99.161	1442.3	159.09	-157.57	1728.7	334.72	-48.637	990.18	401.51	-66.447	1004.8	173.75	-255.25	1008.7	331.84	-259.33	1019.9	250.95	-106.99	911.25	478.93	-144.06	946.44	120.07	-143.61	1067.9	454.38	-131.11	1081.6	153.88	-278.47	980.87	295.4	-15.576	720.35	482.84	65.602	674.05	442.97	17.463	637.67	476.42	32.533	759.11	444.15	73.092	525.88	439.03	66.829	520.2	310	99.208	296.78	450.71	185.89	267.36	442.8	132.48	229.04	446.79	157.04	339.02	444.15	201.44	134.2	436.18	210.79	148.65	358.14	173.52	62.938	384.37	196.91	44.116	358.94	187.11	43.341	419.62	339.98	112.52	478.64	368.07	133.22	373.17	406.89	175.83	418.01	-255.65	696.53	133.79	-209.34	597.67	155.11	-282.95	607.55	157	-179.16	680.17	131.92	-276.91	511.67	166.51	-259.85	507.81	293.88	-390.3	315.66	182.42	-344.26	216.36	202.3	-404	240.4	198.41	-330.36	290.68	186.67	-401.3	114.01	216.73	-383.82	127.19	302.81	-475.65	90.455	268.07	-464.52	55.167	298.69	-472.84	61.657	235.23	-300.51	40.058	185.8	-266.9	40.688	293.13	-212.76	47.211	241.32	-201.23	1477.7	307.91	-286.52	1269.7	283.07
135	0.55833	1.6272	1256.8	316.69	-144.15	1409.2	460.36	-93.621	1441	159.54	-152.24	1727.4	335.36	-43.201	988.93	401.47	-61.496	1003.7	173.73	-249.94	1007.5	332.19	-254.1	1018.9	251.29	-101.51	909.94	479	-139.38	945.5	120.11	-138.13	1066.6	454.6	-126.15	1080.6	154.08	-273.27	979.81	295.78	-10.819	718.6	482.92	70.201	672.06	443.08	21.854	635.81	476.39	37.444	757.26	444.38	77.94	524.58	438.77	71.08	518.46	309.7	108.19	295.96	450.54	195.34	268.11	442.2	142.67	228.79	446.46	165.2	339.25	443.65	213.25	135.11	435.6	222.22	149.82	357.57	186.52	63.341	383.8	210.3	44.958	358.3	200.61	43.939	419.01	352.39	115.95	477.85	379.85	137.29	372.32	417.97	180.58	417.21	-252.17	696.37	133.91	-206.33	597.28	154.96	-279.92	607.55	157.1	-175.79	679.56	131.81	-274.39	511.59	166.5	-256.99	507.52	293.84	-388.82	316.15	182.49	-343.32	216.59	202.28	-402.92	240.96	198.5	-329.02	290.82	186.67	-400.89	114.48	216.8	-383.25	127.61	302.85	-475.29	91.192	268.09	-464.3	55.892	298.72	-472.63	62.357	235.27	-300.46	40.032	185.77	-266.83	40.69	293.09	-212.65	47.035	241.24	-195.72	1476.6	308.27	-281.22	1268.6	283.39
136	0.5625	6.9501	1255.4	317.09	-138.86	1408	460.78	-88.074	1439.7	159.99	-146.89	1726.2	336.01	-37.742	987.68	401.42	-56.525	1002.5	173.71	-244.61	1006.4	332.55	-248.84	1017.8	251.65	-95.977	908.65	479.08	-134.69	944.57	120.17	-132.62	1065.4	454.83	-121.18	1079.5	154.28	-268.06	978.76	296.18	-5.9473	716.93	483.02	74.891	670.12	443.16	26.366	634.01	476.38	42.444	755.47	444.57	82.838	523.32	438.53	75.321	516.76	309.45	116.98	295.17	450.34	204.56	268.83	441.59	152.59	228.56	446.1	173.21	339.45	443.16	224.69	136.02	434.98	233.28	150.97	356.96	199.1	63.785	383.18	223.22	45.83	357.61	213.66	44.568	418.35	364.37	119.23	476.99	391.19	141.22	371.4	428.65	185.12	416.34	-248.62	696.19	134.04	-203.22	596.88	154.83	-276.81	607.52	157.21	-172.34	678.94	131.72	-271.77	511.48	166.51	-254.01	507.21	293.81	-387.26	316.65	182.57	-342.33	216.82	202.27	-401.78	241.54	198.59	-327.61	290.96	186.68	-400.46	114.97	216.86	-382.66	128.04	302.88	-474.9	91.964	268.1	-464.07	56.656	298.76	-472.4	63.093	235.3	-300.4	40.007	185.73	-266.76	40.694	293.05	-212.53	46.857	241.17	-190.19	1475.5	308.65	-275.9	1267.6	283.74
137	0.56667	12.298	1254	317.47	-133.53	1406.7	461.21	-82.517	1438.5	160.43	-141.52	1724.9	336.66	-32.259	986.43	401.36	-51.531	1001.4	173.68	-239.26	1005.3	332.93	-243.54	1016.7	252.03	-90.398	907.38	479.16	-129.96	943.63	120.24	-127.08	1064.1	455.07	-116.19	1078.4	154.48	-262.82	977.71	296.6	-0.95444	715.33	483.14	79.681	668.25	443.22	31.008	632.28	476.41	47.536	753.73	444.71	87.793	522.09	438.33	79.567	515.1	309.24	125.57	294.41	450.1	213.52	269.51	440.97	162.23	228.36	445.72	181.04	339.62	442.67	235.75	136.9	434.33	243.97	152.09	356.31	211.22	64.246	382.54	235.66	46.704	356.88	226.24	45.203	417.66	375.93	122.35	476.06	402.1	144.95	370.41	438.94	189.42	415.4	-244.99	695.98	134.19	-200.03	596.47	154.71	-273.6	607.46	157.35	-168.82	678.32	131.63	-269.05	511.36	166.53	-250.92	506.88	293.8	-385.62	317.16	182.65	-341.28	217.06	202.27	-400.58	242.14	198.69	-326.13	291.1	186.7	-400.01	115.49	216.92	-382.04	128.49	302.91	-474.49	92.772	268.1	-463.83	57.461	298.78	-472.16	63.867	235.32	-300.34	39.983	185.7	-266.69	40.701	293.01	-212.42	46.678	241.1	-184.64	1474.4	309.05	-270.55	1266.5	284.12
138	0.57083	17.673	1252.6	317.84	-128.16	1405.4	461.65	-76.948	1437.2	160.88	-136.15	1723.7	337.33	-26.753	985.19	401.32	-46.513	1000.3	173.66	-233.89	1004.2	333.33	-238.2	1015.7	252.43	-84.77	906.14	479.25	-125.21	942.69	120.33	-121.5	1062.9	455.31	-111.19	1077.4	154.68	-257.56	976.67	297.03	4.1642	713.82	483.26	84.578	666.46	443.24	35.792	630.65	476.45	52.725	752.06	444.8	92.814	520.89	438.15	83.833	513.5	309.07	133.95	293.67	449.82	222.24	270.13	440.35	171.58	228.16	445.32	188.7	339.75	442.19	246.41	137.73	433.65	254.26	153.15	355.65	222.87	64.7	381.87	247.59	47.554	356.11	238.33	45.821	416.93	387.05	125.27	475.07	412.56	148.47	369.35	448.83	193.45	414.39	-241.29	695.76	134.36	-196.74	596.05	154.6	-270.3	607.39	157.5	-165.22	677.69	131.56	-266.22	511.22	166.58	-247.71	506.52	293.8	-383.9	317.69	182.74	-340.19	217.31	202.27	-399.32	242.76	198.78	-324.59	291.25	186.74	-399.53	116.05	216.98	-381.39	128.96	302.94	-474.06	93.618	268.09	-463.57	58.308	298.8	-471.91	64.678	235.33	-300.28	39.96	185.66	-266.62	40.713	292.96	-212.3	46.497	241.02	-179.06	1473.3	309.47	-265.18	1265.4	284.52
